G04 #@! TF.GenerationSoftware,KiCad,Pcbnew,8.0.6*
G04 #@! TF.CreationDate,2024-12-07T11:05:47+01:00*
G04 #@! TF.ProjectId,Test_1_Hellen1,54657374-5f31-45f4-9865-6c6c656e312e,rev?*
G04 #@! TF.SameCoordinates,PX7fcad80PY5f5e100*
G04 #@! TF.FileFunction,Copper,L1,Top*
G04 #@! TF.FilePolarity,Positive*
%FSLAX46Y46*%
G04 Gerber Fmt 4.6, Leading zero omitted, Abs format (unit mm)*
G04 Created by KiCad (PCBNEW 8.0.6) date 2024-12-07 11:05:47*
%MOMM*%
%LPD*%
G01*
G04 APERTURE LIST*
G04 #@! TA.AperFunction,SMDPad,CuDef*
%ADD10O,0.200000X5.669999*%
G04 #@! TD*
G04 #@! TA.AperFunction,SMDPad,CuDef*
%ADD11O,11.100001X0.200000*%
G04 #@! TD*
G04 #@! TA.AperFunction,SMDPad,CuDef*
%ADD12O,9.800001X0.399999*%
G04 #@! TD*
G04 #@! TA.AperFunction,SMDPad,CuDef*
%ADD13O,0.499999X0.250000*%
G04 #@! TD*
G04 #@! TA.AperFunction,SMDPad,CuDef*
%ADD14O,0.200000X6.799999*%
G04 #@! TD*
G04 #@! TA.AperFunction,SMDPad,CuDef*
%ADD15O,0.250000X0.499999*%
G04 #@! TD*
G04 #@! TA.AperFunction,ComponentPad*
%ADD16C,0.599999*%
G04 #@! TD*
G04 #@! TA.AperFunction,ComponentPad*
%ADD17R,1.700000X1.700000*%
G04 #@! TD*
G04 #@! TA.AperFunction,ComponentPad*
%ADD18O,1.700000X1.700000*%
G04 #@! TD*
G04 #@! TA.AperFunction,Conductor*
%ADD19C,0.200000*%
G04 #@! TD*
G04 APERTURE END LIST*
D10*
G04 #@! TO.P,M1,E1,GND*
G04 #@! TO.N,GND*
X6200004Y14862497D03*
D11*
X11675005Y17599997D03*
D12*
X12375006Y11000000D03*
D13*
X17000000Y11000000D03*
D14*
X17175004Y14262498D03*
D15*
G04 #@! TO.P,M1,S1,CANL*
G04 #@! TO.N,Net-(J1-Pin_5)*
X6650006Y11049998D03*
G04 #@! TO.P,M1,S2,CANH*
G04 #@! TO.N,Net-(J1-Pin_6)*
X7150007Y11049998D03*
D16*
G04 #@! TO.P,M1,V1,V5*
G04 #@! TO.N,+5V*
X13700004Y12099996D03*
G04 #@! TO.P,M1,V2,CAN_VIO*
G04 #@! TO.N,Net-(J1-Pin_3)*
X12825002Y12624996D03*
G04 #@! TO.P,M1,V5,CAN_TX*
G04 #@! TO.N,Net-(J1-Pin_1)*
X14000006Y13374994D03*
G04 #@! TO.P,M1,V6,CAN_RX*
G04 #@! TO.N,Net-(J1-Pin_2)*
X13925003Y16924995D03*
G04 #@! TD*
D17*
G04 #@! TO.P,J1,1,Pin_1*
G04 #@! TO.N,Net-(J1-Pin_1)*
X4000000Y3000000D03*
D18*
G04 #@! TO.P,J1,2,Pin_2*
G04 #@! TO.N,Net-(J1-Pin_2)*
X6540000Y3000000D03*
G04 #@! TO.P,J1,3,Pin_3*
G04 #@! TO.N,Net-(J1-Pin_3)*
X9080000Y3000000D03*
G04 #@! TO.P,J1,4,Pin_4*
G04 #@! TO.N,+5V*
X11620000Y3000000D03*
G04 #@! TO.P,J1,5,Pin_5*
G04 #@! TO.N,Net-(J1-Pin_5)*
X14160000Y3000000D03*
G04 #@! TO.P,J1,6,Pin_6*
G04 #@! TO.N,Net-(J1-Pin_6)*
X16700000Y3000000D03*
G04 #@! TO.P,J1,7,Pin_7*
G04 #@! TO.N,GND*
X19240000Y3000000D03*
G04 #@! TD*
D19*
G04 #@! TO.N,Net-(J1-Pin_5)*
X14160000Y6840000D02*
X14160000Y3000000D01*
X13400000Y7600000D02*
X14160000Y6840000D01*
X6650006Y11049998D02*
X6650006Y10534313D01*
X9584319Y7600000D02*
X13400000Y7600000D01*
X6650006Y10534313D02*
X9584319Y7600000D01*
G04 #@! TO.N,Net-(J1-Pin_6)*
X7150007Y10599998D02*
X9750005Y8000000D01*
X9750005Y8000000D02*
X15000000Y8000000D01*
X15000000Y8000000D02*
X16700000Y6300000D01*
X16700000Y6300000D02*
X16700000Y3000000D01*
X7150007Y11049998D02*
X7150007Y10599998D01*
G04 #@! TO.N,GND*
X19240000Y8760000D02*
X19240000Y3000000D01*
X17000000Y11000000D02*
X19240000Y8760000D01*
G04 #@! TD*
M02*
