G04 #@! TF.GenerationSoftware,KiCad,Pcbnew,8.0.6*
G04 #@! TF.CreationDate,2024-12-15T18:45:36+01:00*
G04 #@! TF.ProjectId,Test_2,54657374-5f32-42e6-9b69-6361645f7063,rev?*
G04 #@! TF.SameCoordinates,PX85e5580PY67486e0*
G04 #@! TF.FileFunction,Copper,L4,Bot*
G04 #@! TF.FilePolarity,Positive*
%FSLAX46Y46*%
G04 Gerber Fmt 4.6, Leading zero omitted, Abs format (unit mm)*
G04 Created by KiCad (PCBNEW 8.0.6) date 2024-12-15 18:45:36*
%MOMM*%
%LPD*%
G01*
G04 APERTURE LIST*
G04 #@! TA.AperFunction,ComponentPad*
%ADD10C,0.599999*%
G04 #@! TD*
G04 #@! TA.AperFunction,ComponentPad*
%ADD11O,2.200000X1.700000*%
G04 #@! TD*
G04 #@! TA.AperFunction,Conductor*
%ADD12C,0.200000*%
G04 #@! TD*
G04 APERTURE END LIST*
D10*
G04 #@! TO.P,M1,V1,V5*
G04 #@! TO.N,+5V*
X20037499Y8300000D03*
G04 #@! TO.P,M1,V2,CAN_VIO*
G04 #@! TO.N,unconnected-(M1-CAN_VIO-PadV2)*
X20562499Y9175002D03*
G04 #@! TO.P,M1,V5,CAN_TX*
G04 #@! TO.N,/Can_TX*
X21312497Y7999998D03*
G04 #@! TO.P,M1,V6,CAN_RX*
G04 #@! TO.N,/Can_RX*
X24862498Y8075001D03*
G04 #@! TD*
G04 #@! TO.P,J1,1,Pin_1*
G04 #@! TO.N,/Can_L*
G04 #@! TA.AperFunction,ComponentPad*
G36*
G01*
X2945007Y15866671D02*
X2945007Y17066671D01*
G75*
G02*
X3195007Y17316671I250000J0D01*
G01*
X4895007Y17316671D01*
G75*
G02*
X5145007Y17066671I0J-250000D01*
G01*
X5145007Y15866671D01*
G75*
G02*
X4895007Y15616671I-250000J0D01*
G01*
X3195007Y15616671D01*
G75*
G02*
X2945007Y15866671I0J250000D01*
G01*
G37*
G04 #@! TD.AperFunction*
D11*
G04 #@! TO.P,J1,2,Pin_2*
G04 #@! TO.N,/Can_H*
X4045007Y13966671D03*
G04 #@! TO.P,J1,3,Pin_3*
G04 #@! TO.N,GND*
X4045007Y11466671D03*
G04 #@! TO.P,J1,4,Pin_4*
G04 #@! TO.N,/Can_TX*
X4045007Y8966671D03*
G04 #@! TO.P,J1,5,Pin_5*
G04 #@! TO.N,/Can_RX*
X4045007Y6466671D03*
G04 #@! TO.P,J1,6,Pin_6*
G04 #@! TO.N,+5V*
X4045007Y3966671D03*
G04 #@! TD*
D12*
G04 #@! TO.N,+5V*
X20000000Y7400000D02*
X20000000Y7600000D01*
X23900000Y8400000D02*
X22500000Y7000000D01*
X20400000Y7000000D02*
X20000000Y7400000D01*
X20037499Y7637499D02*
X20037499Y8300000D01*
X9200000Y5700000D02*
X23900000Y5700000D01*
X25800000Y8900000D02*
X25700000Y9000000D01*
X7466671Y3966671D02*
X9200000Y5700000D01*
X22500000Y7000000D02*
X20400000Y7000000D01*
X20000000Y7600000D02*
X20037499Y7637499D01*
X23900000Y5700000D02*
X25800000Y7600000D01*
X25700000Y9000000D02*
X23900000Y9000000D01*
X25800000Y7600000D02*
X25800000Y8900000D01*
X4045007Y3966671D02*
X7466671Y3966671D01*
X23900000Y9000000D02*
X23900000Y8400000D01*
G04 #@! TO.N,/Can_RX*
X4045007Y6466671D02*
X23254168Y6466671D01*
X23254168Y6466671D02*
X24862498Y8075001D01*
G04 #@! TO.N,/Can_TX*
X22800000Y10300000D02*
X22800000Y8500000D01*
X22299998Y7999998D02*
X21312497Y7999998D01*
X18300000Y11100000D02*
X22000000Y11100000D01*
X4853337Y9775001D02*
X16975001Y9775001D01*
X22800000Y8500000D02*
X22299998Y7999998D01*
X4045007Y8966671D02*
X4853337Y9775001D01*
X16975001Y9775001D02*
X18300000Y11100000D01*
X22000000Y11100000D02*
X22800000Y10300000D01*
G04 #@! TD*
M02*
