G04 #@! TF.GenerationSoftware,KiCad,Pcbnew,8.0.7-8.0.7-0~ubuntu22.04.1*
G04 #@! TF.CreationDate,2024-12-07T10:59:53+00:00*
G04 #@! TF.ProjectId,Test_1_Hellen1,54657374-5f31-45f4-9865-6c6c656e312e,rev?*
G04 #@! TF.SameCoordinates,Original*
G04 #@! TF.FileFunction,Legend,Top*
G04 #@! TF.FilePolarity,Positive*
%FSLAX46Y46*%
G04 Gerber Fmt 4.6, Leading zero omitted, Abs format (unit mm)*
G04 Created by KiCad (PCBNEW 8.0.7-8.0.7-0~ubuntu22.04.1) date 2024-12-07 10:59:53*
%MOMM*%
%LPD*%
G01*
G04 APERTURE LIST*
%ADD10C,0.150000*%
%ADD11C,0.200000*%
%ADD12C,0.120000*%
G04 APERTURE END LIST*
D10*
X1124819Y2666667D02*
X1839104Y2666667D01*
X1839104Y2666667D02*
X1981961Y2619048D01*
X1981961Y2619048D02*
X2077200Y2523810D01*
X2077200Y2523810D02*
X2124819Y2380953D01*
X2124819Y2380953D02*
X2124819Y2285715D01*
X2124819Y3666667D02*
X2124819Y3095239D01*
X2124819Y3380953D02*
X1124819Y3380953D01*
X1124819Y3380953D02*
X1267676Y3285715D01*
X1267676Y3285715D02*
X1362914Y3190477D01*
X1362914Y3190477D02*
X1410533Y3095239D01*
D11*
G04 #@! TO.C,M1*
X6100004Y17672476D02*
X17275004Y17711323D01*
X6100004Y11974995D02*
X6100004Y17672476D01*
X6100004Y11974995D02*
X6375008Y11699991D01*
X6375008Y10824997D02*
X6375008Y11699991D01*
X6375008Y10824997D02*
X6375010Y10824994D01*
X6375010Y10824994D02*
X17275004Y10824994D01*
X17275004Y10824994D02*
X17275004Y17711323D01*
D12*
G04 #@! TO.C,J1*
X2670000Y1670000D02*
X2670000Y3000000D01*
X4000000Y1670000D02*
X2670000Y1670000D01*
X5270000Y4330000D02*
X20570000Y4330000D01*
X5270000Y1670000D02*
X5270000Y4330000D01*
X5270000Y1670000D02*
X20570000Y1670000D01*
X20570000Y1670000D02*
X20570000Y4330000D01*
G04 #@! TD*
M02*
