G04 #@! TF.GenerationSoftware,KiCad,Pcbnew,8.0.7-8.0.7-0~ubuntu22.04.1*
G04 #@! TF.CreationDate,2024-12-07T10:59:53+00:00*
G04 #@! TF.ProjectId,Test_1_Hellen1,54657374-5f31-45f4-9865-6c6c656e312e,rev?*
G04 #@! TF.SameCoordinates,Original*
G04 #@! TF.FileFunction,Copper,L2,Bot*
G04 #@! TF.FilePolarity,Positive*
%FSLAX46Y46*%
G04 Gerber Fmt 4.6, Leading zero omitted, Abs format (unit mm)*
G04 Created by KiCad (PCBNEW 8.0.7-8.0.7-0~ubuntu22.04.1) date 2024-12-07 10:59:53*
%MOMM*%
%LPD*%
G01*
G04 APERTURE LIST*
G04 #@! TA.AperFunction,ComponentPad*
%ADD10C,0.599999*%
G04 #@! TD*
G04 #@! TA.AperFunction,ComponentPad*
%ADD11R,1.700000X1.700000*%
G04 #@! TD*
G04 #@! TA.AperFunction,ComponentPad*
%ADD12O,1.700000X1.700000*%
G04 #@! TD*
G04 #@! TA.AperFunction,Conductor*
%ADD13C,0.200000*%
G04 #@! TD*
G04 APERTURE END LIST*
D10*
G04 #@! TO.P,M1,V1,V5*
G04 #@! TO.N,+5V*
X13700004Y12099996D03*
G04 #@! TO.P,M1,V2,CAN_VIO*
G04 #@! TO.N,Net-(J1-Pin_3)*
X12825002Y12624996D03*
G04 #@! TO.P,M1,V5,CAN_TX*
G04 #@! TO.N,Net-(J1-Pin_1)*
X14000006Y13374994D03*
G04 #@! TO.P,M1,V6,CAN_RX*
G04 #@! TO.N,Net-(J1-Pin_2)*
X13925003Y16924995D03*
G04 #@! TD*
D11*
G04 #@! TO.P,J1,1,Pin_1*
G04 #@! TO.N,Net-(J1-Pin_1)*
X4000000Y3000000D03*
D12*
G04 #@! TO.P,J1,2,Pin_2*
G04 #@! TO.N,Net-(J1-Pin_2)*
X6540000Y3000000D03*
G04 #@! TO.P,J1,3,Pin_3*
G04 #@! TO.N,Net-(J1-Pin_3)*
X9080000Y3000000D03*
G04 #@! TO.P,J1,4,Pin_4*
G04 #@! TO.N,+5V*
X11620000Y3000000D03*
G04 #@! TO.P,J1,5,Pin_5*
G04 #@! TO.N,Net-(J1-Pin_5)*
X14160000Y3000000D03*
G04 #@! TO.P,J1,6,Pin_6*
G04 #@! TO.N,Net-(J1-Pin_6)*
X16700000Y3000000D03*
G04 #@! TO.P,J1,7,Pin_7*
G04 #@! TO.N,GND*
X19240000Y3000000D03*
G04 #@! TD*
D13*
G04 #@! TO.N,+5V*
X13700004Y10700004D02*
X12000000Y9000000D01*
X12000000Y8000000D02*
X11620000Y7620000D01*
X12000000Y9000000D02*
X12000000Y8000000D01*
X13700004Y12099996D02*
X13700004Y10700004D01*
X11620000Y7620000D02*
X11620000Y3000000D01*
G04 #@! TO.N,Net-(J1-Pin_3)*
X12825002Y10390688D02*
X9080000Y6645686D01*
X9080000Y6645686D02*
X9080000Y3000000D01*
X12825002Y12624996D02*
X12825002Y10390688D01*
G04 #@! TO.N,Net-(J1-Pin_1)*
X12000000Y14000000D02*
X4000000Y6000000D01*
X13375000Y14000000D02*
X12000000Y14000000D01*
X14000006Y13374994D02*
X13375000Y14000000D01*
X4000000Y6000000D02*
X4000000Y3000000D01*
G04 #@! TO.N,Net-(J1-Pin_2)*
X2000000Y6000000D02*
X2000000Y2000000D01*
X6540000Y2540000D02*
X6540000Y3000000D01*
X12924995Y16924995D02*
X2000000Y6000000D01*
X5000000Y1000000D02*
X6540000Y2540000D01*
X2000000Y2000000D02*
X3000000Y1000000D01*
X3000000Y1000000D02*
X5000000Y1000000D01*
X13925003Y16924995D02*
X12924995Y16924995D01*
G04 #@! TD*
M02*
