G75*
G70*
%OFA0B0*%
%FSLAX25Y25*%
%IPPOS*%
%LPD*%
%AMOC8*
5,1,8,0,0,1.08239X$1,22.5*
%
%ADD18C,0.00787*%
%ADD45C,0.01000*%
X0000000Y0000000D02*
%LPD*%
G01*
D18*
X0073844Y0018602D02*
X0100981Y0018602D01*
X0073868Y0061294D02*
X0073868Y0018602D01*
X0074065Y0061516D02*
X0073868Y0061294D01*
X0074065Y0061516D02*
X0077313Y0061516D01*
X0078396Y0062598D02*
X0077313Y0061516D01*
X0078396Y0062598D02*
X0100828Y0062598D01*
X0100828Y0062598D02*
X0100981Y0018602D01*
X0073474Y0062992D02*
G01*
G75*
D18*
X0074065Y0061516D02*
X0073868Y0061294D01*
X0074065Y0061516D02*
X0077313Y0061516D01*
X0078395Y0062598D02*
X0077313Y0061516D01*
X0073843Y0018602D02*
X0100981Y0018602D01*
X0100828Y0062598D02*
X0100981Y0018602D01*
X0073868Y0061294D02*
X0073868Y0018602D01*
X0078395Y0062598D02*
X0100828Y0062598D01*
D45*
X0095634Y0029247D02*
X0095634Y0026885D01*
X0094847Y0026098D01*
X0093273Y0026098D01*
X0092486Y0026885D01*
X0092486Y0029247D01*
X0095634Y0031608D02*
X0095634Y0033183D01*
X0094847Y0033970D01*
X0092486Y0033970D01*
X0092486Y0031608D01*
X0093273Y0030821D01*
X0094060Y0031608D01*
X0094060Y0033970D01*
X0092486Y0035544D02*
X0095634Y0035544D01*
X0095634Y0037905D01*
X0094847Y0038693D01*
X0092486Y0038693D01*
X0094847Y0040267D02*
X0094847Y0043415D01*
X0096422Y0044990D02*
X0097209Y0045777D01*
X0097209Y0047351D01*
X0096422Y0048138D01*
X0093273Y0048138D01*
X0092486Y0047351D01*
X0092486Y0045777D01*
X0093273Y0044990D01*
X0096422Y0044990D01*
X0092486Y0049713D02*
X0093273Y0049713D01*
X0093273Y0050500D01*
X0092486Y0050500D01*
X0092486Y0049713D01*
X0092486Y0053648D02*
X0092486Y0055223D01*
X0092486Y0054436D01*
X0097209Y0054436D01*
X0096422Y0053648D01*
M02*
