G75*
G70*
%OFA0B0*%
%FSLAX25Y25*%
%IPPOS*%
%LPD*%
%AMOC8*
5,1,8,0,0,1.08239X$1,22.5*
%
%ADD16C,0.02362*%
%ADD17R,0.06693X0.06693*%
%ADD18O,0.06693X0.06693*%
%ADD19C,0.00787*%
X0000000Y0000000D02*
%LPD*%
G01*
D16*
X0053937Y0047638D03*
X0050492Y0049705D03*
X0055118Y0052657D03*
X0054823Y0066634D03*
D17*
X0015748Y0011811D03*
D18*
X0025748Y0011811D03*
X0035748Y0011811D03*
X0045748Y0011811D03*
X0055748Y0011811D03*
X0065748Y0011811D03*
X0075748Y0011811D03*
D19*
X0053937Y0042126D02*
X0047244Y0035433D01*
X0047244Y0031496D02*
X0045748Y0030000D01*
X0047244Y0035433D02*
X0047244Y0031496D01*
X0053937Y0047638D02*
X0053937Y0042126D01*
X0045748Y0030000D02*
X0045748Y0011811D01*
X0050492Y0040908D02*
X0035748Y0026164D01*
X0035748Y0026164D02*
X0035748Y0011811D01*
X0050492Y0049705D02*
X0050492Y0040908D01*
X0047244Y0055118D02*
X0015748Y0023622D01*
X0052657Y0055118D02*
X0047244Y0055118D01*
X0055118Y0052657D02*
X0052657Y0055118D01*
X0015748Y0023622D02*
X0015748Y0011811D01*
X0007874Y0023622D02*
X0007874Y0007874D01*
X0025748Y0010000D02*
X0025748Y0011811D01*
X0050886Y0066634D02*
X0007874Y0023622D01*
X0019685Y0003937D02*
X0025748Y0010000D01*
X0007874Y0007874D02*
X0011811Y0003937D01*
X0011811Y0003937D02*
X0019685Y0003937D01*
X0054823Y0066634D02*
X0050886Y0066634D01*
X0023622Y0042224D02*
G01*
G75*
D16*
X0054823Y0066633D02*
D03*
X0055118Y0052657D02*
D03*
X0053937Y0047637D02*
D03*
X0050492Y0049704D02*
D03*
M02*
