G75*
G70*
%OFA0B0*%
%FSLAX25Y25*%
%IPPOS*%
%LPD*%
%AMOC8*
5,1,8,0,0,1.08239X$1,22.5*
%
%ADD19C,0.00787*%
%ADD41C,0.01000*%
X0000000Y0000000D02*
%LPD*%
G01*
D19*
X0024016Y0069578D02*
X0068012Y0069731D01*
X0024016Y0047146D02*
X0024016Y0069578D01*
X0024016Y0047146D02*
X0025098Y0046063D01*
X0025098Y0042815D02*
X0025098Y0046063D01*
X0025098Y0042815D02*
X0025320Y0042618D01*
X0025320Y0042618D02*
X0068012Y0042618D01*
X0068012Y0042594D02*
X0068012Y0069731D01*
X0023622Y0042224D02*
G01*
G75*
D19*
X0025098Y0042815D02*
X0025320Y0042618D01*
X0025098Y0042815D02*
X0025098Y0046063D01*
X0024016Y0047145D02*
X0025098Y0046063D01*
X0068012Y0042593D02*
X0068012Y0069731D01*
X0024016Y0069578D02*
X0068012Y0069731D01*
X0025320Y0042618D02*
X0068012Y0042618D01*
X0024016Y0047145D02*
X0024016Y0069578D01*
D41*
X0057367Y0064384D02*
X0059729Y0064384D01*
X0060516Y0063597D01*
X0060516Y0062023D01*
X0059729Y0061236D01*
X0057367Y0061236D01*
X0055006Y0064384D02*
X0053431Y0064384D01*
X0052644Y0063597D01*
X0052644Y0061236D01*
X0055006Y0061236D01*
X0055793Y0062023D01*
X0055006Y0062810D01*
X0052644Y0062810D01*
X0051070Y0061236D02*
X0051070Y0064384D01*
X0048709Y0064384D01*
X0047921Y0063597D01*
X0047921Y0061236D01*
X0046347Y0063597D02*
X0043199Y0063597D01*
X0041624Y0065172D02*
X0040837Y0065959D01*
X0039263Y0065959D01*
X0038476Y0065172D01*
X0038476Y0062023D01*
X0039263Y0061236D01*
X0040837Y0061236D01*
X0041624Y0062023D01*
X0041624Y0065172D01*
X0036901Y0061236D02*
X0036901Y0062023D01*
X0036114Y0062023D01*
X0036114Y0061236D01*
X0036901Y0061236D01*
X0032966Y0061236D02*
X0031391Y0061236D01*
X0032178Y0061236D01*
X0032178Y0065959D01*
X0032966Y0065172D01*
M02*
