G75*
G70*
%OFA0B0*%
%FSLAX25Y25*%
%IPPOS*%
%LPD*%
%AMOC8*
5,1,8,0,0,1.08239X$1,22.5*
%
%AMM1*
21,1,0.035430,0.030320,0.000000,0.000000,180.000000*
21,1,0.028350,0.037400,0.000000,0.000000,180.000000*
1,1,0.007090,-0.014170,0.015160*
1,1,0.007090,0.014170,0.015160*
1,1,0.007090,0.014170,-0.015160*
1,1,0.007090,-0.014170,-0.015160*
%
%AMM2*
21,1,0.033470,0.026770,0.000000,0.000000,0.000000*
21,1,0.026770,0.033470,0.000000,0.000000,0.000000*
1,1,0.006690,0.013390,-0.013390*
1,1,0.006690,-0.013390,-0.013390*
1,1,0.006690,-0.013390,0.013390*
1,1,0.006690,0.013390,0.013390*
%
%AMM3*
21,1,0.027560,0.030710,0.000000,0.000000,180.000000*
21,1,0.022050,0.036220,0.000000,0.000000,180.000000*
1,1,0.005510,-0.011020,0.015350*
1,1,0.005510,0.011020,0.015350*
1,1,0.005510,0.011020,-0.015350*
1,1,0.005510,-0.011020,-0.015350*
%
%ADD10O,0.00787X0.22323*%
%ADD11O,0.43701X0.00787*%
%ADD12O,0.38583X0.01575*%
%ADD13O,0.01969X0.00984*%
%ADD14O,0.00787X0.26772*%
%ADD15O,0.00984X0.01969*%
%ADD16C,0.02362*%
%ADD17R,0.06693X0.06693*%
%ADD18O,0.06693X0.06693*%
%ADD19C,0.00787*%
%ADD24M1*%
%ADD25O,0.08661X0.02362*%
%ADD26M2*%
%ADD27M3*%
%ADD28O,0.01968X0.00984*%
%ADD29O,0.00984X0.01968*%
%ADD30C,0.01575*%
%ADD31C,0.01181*%
X0000000Y0000000D02*
%LPD*%
G01*
D10*
X0024409Y0058514D03*
D11*
X0045965Y0069291D03*
D12*
X0048720Y0043307D03*
D13*
X0066929Y0043307D03*
D14*
X0067618Y0056152D03*
D15*
X0026181Y0043504D03*
X0028150Y0043504D03*
D16*
X0053937Y0047638D03*
X0050492Y0049705D03*
X0055118Y0052657D03*
X0054823Y0066634D03*
D17*
X0015748Y0011811D03*
D18*
X0025748Y0011811D03*
X0035748Y0011811D03*
X0045748Y0011811D03*
X0055748Y0011811D03*
X0065748Y0011811D03*
X0075748Y0011811D03*
D19*
X0055748Y0026929D02*
X0055748Y0011811D01*
X0052756Y0029921D02*
X0055748Y0026929D01*
X0026181Y0043504D02*
X0026181Y0041474D01*
X0037734Y0029921D02*
X0052756Y0029921D01*
X0026181Y0041474D02*
X0037734Y0029921D01*
X0028150Y0041732D02*
X0038386Y0031496D01*
X0038386Y0031496D02*
X0059055Y0031496D01*
X0059055Y0031496D02*
X0065748Y0024803D01*
X0065748Y0024803D02*
X0065748Y0011811D01*
X0028150Y0043504D02*
X0028150Y0041732D01*
X0075748Y0034488D02*
X0075748Y0011811D01*
X0066929Y0043307D02*
X0075748Y0034488D01*
X0023622Y0042224D02*
G01*
G75*
G36*
X0068119Y0068889D02*
X0068010Y0043307D01*
X0041299Y0043107D01*
X0040941Y0043560D01*
X0041046Y0044055D01*
X0041106Y0044085D01*
X0040144Y0044085D01*
X0039939Y0043869D01*
X0039749Y0044085D01*
X0038779Y0044085D01*
X0038779Y0043594D01*
X0038021Y0043594D01*
X0038014Y0043195D01*
X0037962Y0043226D01*
X0037883Y0043253D01*
X0037777Y0043278D01*
X0037645Y0043299D01*
X0037298Y0043332D01*
X0036576Y0043356D01*
X0036498Y0043356D01*
X0036285Y0043070D01*
X0033935Y0043052D01*
X0033801Y0043297D01*
X0033732Y0043551D01*
X0033992Y0043940D01*
X0034097Y0044468D01*
X0034097Y0044884D01*
X0033725Y0044845D01*
X0033532Y0044802D01*
X0033369Y0044746D01*
X0033234Y0044678D01*
X0033129Y0044597D01*
X0033053Y0044504D01*
X0033006Y0044399D01*
X0032989Y0044281D01*
X0033016Y0045484D01*
X0031299Y0045484D01*
X0031299Y0045984D01*
X0030799Y0045984D01*
X0030799Y0048880D01*
X0029882Y0048880D01*
X0029807Y0048866D01*
X0029409Y0049186D01*
X0029395Y0049640D01*
X0032665Y0052910D01*
X0032799Y0052897D01*
X0033177Y0052645D01*
X0033622Y0052556D01*
X0036457Y0052556D01*
X0036902Y0052645D01*
X0037282Y0052350D01*
X0042098Y0052350D01*
X0042098Y0054074D01*
X0039449Y0054074D01*
X0038598Y0053905D01*
X0038101Y0053573D01*
X0037919Y0053629D01*
X0037621Y0053853D01*
X0037621Y0055211D01*
X0038121Y0055370D01*
X0038681Y0054996D01*
X0039449Y0054843D01*
X0045748Y0054843D01*
X0046516Y0054996D01*
X0047167Y0055431D01*
X0047602Y0056082D01*
X0047755Y0056850D01*
X0047602Y0057618D01*
X0047167Y0058269D01*
X0046516Y0058704D01*
X0045748Y0058857D01*
X0039449Y0058857D01*
X0039371Y0058842D01*
X0038987Y0058842D01*
X0038705Y0059251D01*
X0038657Y0059490D01*
X0039007Y0059907D01*
X0039042Y0059924D01*
X0039449Y0059843D01*
X0045748Y0059843D01*
X0046516Y0059996D01*
X0047167Y0060431D01*
X0047602Y0061082D01*
X0047755Y0061850D01*
X0047602Y0062618D01*
X0047167Y0063269D01*
X0046516Y0063704D01*
X0045748Y0063857D01*
X0039449Y0063857D01*
X0039371Y0063842D01*
X0039256Y0063842D01*
X0039254Y0063844D01*
X0039116Y0063981D01*
X0038726Y0064242D01*
X0038265Y0064334D01*
X0038265Y0064334D01*
X0031142Y0064334D01*
X0030681Y0064242D01*
X0030290Y0063981D01*
X0030290Y0063981D01*
X0029066Y0062757D01*
X0027047Y0062757D01*
X0026632Y0062674D01*
X0026281Y0062439D01*
X0026046Y0062088D01*
X0025963Y0061673D01*
X0025963Y0058602D01*
X0026004Y0058398D01*
X0025752Y0057885D01*
X0025696Y0057827D01*
X0025318Y0057575D01*
X0025066Y0057197D01*
X0025008Y0056904D01*
X0024508Y0056953D01*
X0024508Y0069340D01*
X0039315Y0069340D01*
X0039364Y0068840D01*
X0038681Y0068704D01*
X0038030Y0068269D01*
X0037594Y0067618D01*
X0037442Y0066850D01*
X0037594Y0066082D01*
X0038030Y0065431D01*
X0038681Y0064996D01*
X0039449Y0064843D01*
X0045748Y0064843D01*
X0046516Y0064996D01*
X0047167Y0065431D01*
X0047304Y0065635D01*
X0047315Y0065637D01*
X0047700Y0065671D01*
X0048287Y0065671D01*
X0049186Y0064772D01*
X0049186Y0051280D01*
X0049182Y0051252D01*
X0049173Y0051204D01*
X0049169Y0051188D01*
X0049073Y0051124D01*
X0048638Y0050472D01*
X0048485Y0049704D01*
X0048549Y0049383D01*
X0048271Y0048967D01*
X0048184Y0048950D01*
X0047813Y0048702D01*
X0047565Y0048331D01*
X0047478Y0047893D01*
X0047478Y0045216D01*
X0047565Y0044778D01*
X0047813Y0044407D01*
X0048184Y0044159D01*
X0048622Y0044072D01*
X0051299Y0044072D01*
X0051737Y0044159D01*
X0052108Y0044407D01*
X0052356Y0044778D01*
X0052443Y0045216D01*
X0052443Y0045667D01*
X0052943Y0045934D01*
X0053169Y0045783D01*
X0053731Y0045671D01*
X0054032Y0045370D01*
X0054553Y0045022D01*
X0055167Y0044900D01*
X0055167Y0044900D01*
X0055539Y0044900D01*
X0055631Y0044893D01*
X0055800Y0044868D01*
X0055898Y0044844D01*
X0055911Y0044778D01*
X0056159Y0044407D01*
X0056531Y0044159D01*
X0056968Y0044072D01*
X0059646Y0044072D01*
X0060083Y0044159D01*
X0060454Y0044407D01*
X0060702Y0044778D01*
X0060790Y0045216D01*
X0060790Y0047893D01*
X0060702Y0048331D01*
X0060454Y0048702D01*
X0060083Y0048950D01*
X0059646Y0049037D01*
X0058444Y0049037D01*
X0058393Y0049066D01*
X0058241Y0049166D01*
X0057949Y0049412D01*
X0058172Y0049878D01*
X0058346Y0049843D01*
X0064646Y0049843D01*
X0065414Y0049996D01*
X0066065Y0050431D01*
X0066500Y0051082D01*
X0066653Y0051850D01*
X0066500Y0052618D01*
X0066065Y0053269D01*
X0065414Y0053704D01*
X0064646Y0053857D01*
X0058346Y0053857D01*
X0057578Y0053704D01*
X0057410Y0053592D01*
X0056753Y0053754D01*
X0056537Y0054076D01*
X0055886Y0054511D01*
X0055118Y0054664D01*
X0054464Y0054534D01*
X0053964Y0054809D01*
X0053964Y0060504D01*
X0056371Y0060504D01*
X0056420Y0060500D01*
X0056556Y0060482D01*
X0056681Y0060457D01*
X0056798Y0060427D01*
X0056906Y0060390D01*
X0057006Y0060349D01*
X0057099Y0060302D01*
X0057186Y0060249D01*
X0057292Y0060174D01*
X0057351Y0060148D01*
X0057578Y0059996D01*
X0058346Y0059843D01*
X0064646Y0059843D01*
X0065414Y0059996D01*
X0066065Y0060431D01*
X0066500Y0061082D01*
X0066653Y0061850D01*
X0066500Y0062618D01*
X0066065Y0063269D01*
X0065414Y0063704D01*
X0064646Y0063857D01*
X0058346Y0063857D01*
X0057578Y0063704D01*
X0057357Y0063557D01*
X0057302Y0063533D01*
X0057232Y0063485D01*
X0057183Y0063458D01*
X0057118Y0063429D01*
X0057036Y0063401D01*
X0056937Y0063374D01*
X0056820Y0063350D01*
X0056696Y0063331D01*
X0056471Y0063314D01*
X0053078Y0063314D01*
X0052540Y0063207D01*
X0052496Y0063177D01*
X0051996Y0063444D01*
X0051996Y0065354D01*
X0051889Y0065892D01*
X0051584Y0066347D01*
X0049862Y0068069D01*
X0049406Y0068374D01*
X0048869Y0068481D01*
X0047337Y0068481D01*
X0047211Y0068486D01*
X0046937Y0068514D01*
X0046851Y0068528D01*
X0046788Y0068543D01*
X0046768Y0068549D01*
X0046762Y0068553D01*
X0046722Y0068568D01*
X0046719Y0068569D01*
X0046718Y0068569D01*
X0046516Y0068704D01*
X0045833Y0068840D01*
X0045882Y0069340D01*
X0058212Y0069340D01*
X0058261Y0068840D01*
X0057578Y0068704D01*
X0056927Y0068269D01*
X0056792Y0068067D01*
X0056656Y0068054D01*
X0056437Y0068054D01*
X0056386Y0068063D01*
X0056332Y0068076D01*
X0056276Y0068093D01*
X0056218Y0068115D01*
X0056168Y0068137D01*
X0056020Y0068219D01*
X0055944Y0068270D01*
X0055874Y0068299D01*
X0055591Y0068488D01*
X0054823Y0068641D01*
X0054055Y0068488D01*
X0053404Y0068053D01*
X0052968Y0067401D01*
X0052816Y0066633D01*
X0052968Y0065865D01*
X0053404Y0065214D01*
X0054055Y0064779D01*
X0054823Y0064626D01*
X0055591Y0064779D01*
X0056242Y0065214D01*
X0056366Y0065400D01*
X0056622Y0065447D01*
X0056927Y0065431D01*
X0057578Y0064996D01*
X0058346Y0064843D01*
X0064646Y0064843D01*
X0065414Y0064996D01*
X0066065Y0065431D01*
X0066500Y0066082D01*
X0066653Y0066850D01*
X0066500Y0067618D01*
X0066065Y0068269D01*
X0065414Y0068704D01*
X0064731Y0068840D01*
X0064780Y0069340D01*
X0067667Y0069340D01*
X0068119Y0068889D01*
D02*
G37*
G36*
X0057487Y0066070D02*
X0057476Y0066143D01*
X0057445Y0066209D01*
X0057394Y0066267D01*
X0057322Y0066317D01*
X0057229Y0066360D01*
X0057116Y0066394D01*
X0056982Y0066421D01*
X0056827Y0066441D01*
X0056652Y0066452D01*
X0056623Y0066453D01*
X0056587Y0066451D01*
X0056480Y0066437D01*
X0056378Y0066413D01*
X0056281Y0066379D01*
X0056189Y0066336D01*
X0056102Y0066283D01*
X0056020Y0066221D01*
X0055943Y0066148D01*
X0055871Y0066067D01*
X0055804Y0065975D01*
X0055500Y0067601D01*
X0055603Y0067533D01*
X0055808Y0067419D01*
X0055912Y0067372D01*
X0056016Y0067333D01*
X0056120Y0067301D01*
X0056225Y0067276D01*
X0056331Y0067258D01*
X0056436Y0067247D01*
X0056511Y0067245D01*
X0056652Y0067247D01*
X0056982Y0067278D01*
X0057116Y0067306D01*
X0057229Y0067340D01*
X0057322Y0067383D01*
X0057394Y0067433D01*
X0057445Y0067491D01*
X0057476Y0067557D01*
X0057487Y0067630D01*
X0057487Y0066070D01*
D02*
G37*
G36*
X0046400Y0067832D02*
X0046481Y0067798D01*
X0046579Y0067767D01*
X0046696Y0067740D01*
X0046831Y0067718D01*
X0047154Y0067685D01*
X0047551Y0067669D01*
X0047776Y0067666D01*
X0048043Y0066485D01*
X0047730Y0066480D01*
X0047204Y0066433D01*
X0046991Y0066392D01*
X0046811Y0066340D01*
X0046666Y0066276D01*
X0046553Y0066201D01*
X0046474Y0066113D01*
X0046428Y0066015D01*
X0046416Y0065904D01*
X0046338Y0067871D01*
X0046400Y0067832D01*
D02*
G37*
G36*
X0038646Y0063307D02*
X0038906Y0063083D01*
X0038977Y0063034D01*
X0039039Y0062999D01*
X0039094Y0062976D01*
X0039140Y0062966D01*
X0039177Y0062969D01*
X0039207Y0062985D01*
X0038356Y0062236D01*
X0038376Y0062263D01*
X0038383Y0062297D01*
X0038378Y0062340D01*
X0038360Y0062390D01*
X0038329Y0062447D01*
X0038286Y0062513D01*
X0038230Y0062586D01*
X0038080Y0062755D01*
X0037986Y0062851D01*
X0038543Y0063408D01*
X0038646Y0063307D01*
D02*
G37*
G36*
X0057757Y0060829D02*
X0057626Y0060922D01*
X0057487Y0061005D01*
X0057342Y0061079D01*
X0057189Y0061142D01*
X0057028Y0061196D01*
X0056861Y0061240D01*
X0056687Y0061274D01*
X0056505Y0061299D01*
X0056316Y0061314D01*
X0056120Y0061318D01*
X0056190Y0062500D01*
X0056401Y0062503D01*
X0056786Y0062533D01*
X0056960Y0062559D01*
X0057123Y0062593D01*
X0057274Y0062633D01*
X0057412Y0062682D01*
X0057539Y0062737D01*
X0057654Y0062801D01*
X0057757Y0062871D01*
X0057757Y0060829D01*
D02*
G37*
G36*
X0035816Y0060850D02*
X0035840Y0060783D01*
X0035880Y0060724D01*
X0035936Y0060673D01*
X0036008Y0060630D01*
X0036096Y0060594D01*
X0036200Y0060566D01*
X0036319Y0060547D01*
X0036455Y0060535D01*
X0036607Y0060531D01*
X0036607Y0059744D01*
X0036455Y0059740D01*
X0036319Y0059728D01*
X0036200Y0059708D01*
X0036096Y0059681D01*
X0036008Y0059645D01*
X0035936Y0059602D01*
X0035880Y0059551D01*
X0035840Y0059492D01*
X0035816Y0059425D01*
X0035808Y0059350D01*
X0035808Y0060925D01*
X0035816Y0060850D01*
D02*
G37*
G36*
X0028862Y0058337D02*
X0028795Y0058313D01*
X0028736Y0058273D01*
X0028685Y0058217D01*
X0028642Y0058145D01*
X0028606Y0058057D01*
X0028579Y0057954D01*
X0028559Y0057834D01*
X0028549Y0057717D01*
X0028559Y0057600D01*
X0028579Y0057480D01*
X0028606Y0057376D01*
X0028642Y0057289D01*
X0028685Y0057216D01*
X0028736Y0057161D01*
X0028795Y0057121D01*
X0028862Y0057097D01*
X0028937Y0057089D01*
X0027362Y0057089D01*
X0027437Y0057097D01*
X0027504Y0057121D01*
X0027563Y0057161D01*
X0027614Y0057216D01*
X0027657Y0057289D01*
X0027693Y0057376D01*
X0027720Y0057480D01*
X0027740Y0057600D01*
X0027750Y0057717D01*
X0027740Y0057834D01*
X0027720Y0057954D01*
X0027693Y0058057D01*
X0027657Y0058145D01*
X0027614Y0058217D01*
X0027563Y0058273D01*
X0027504Y0058313D01*
X0027437Y0058337D01*
X0027362Y0058345D01*
X0028937Y0058345D01*
X0028862Y0058337D01*
D02*
G37*
G36*
X0035161Y0058337D02*
X0035094Y0058313D01*
X0035035Y0058273D01*
X0034984Y0058217D01*
X0034941Y0058145D01*
X0034905Y0058057D01*
X0034878Y0057954D01*
X0034858Y0057834D01*
X0034848Y0057717D01*
X0034858Y0057600D01*
X0034878Y0057480D01*
X0034905Y0057376D01*
X0034941Y0057289D01*
X0034984Y0057216D01*
X0035035Y0057161D01*
X0035094Y0057121D01*
X0035161Y0057097D01*
X0035236Y0057089D01*
X0033661Y0057089D01*
X0033736Y0057097D01*
X0033803Y0057121D01*
X0033862Y0057161D01*
X0033913Y0057216D01*
X0033957Y0057289D01*
X0033992Y0057376D01*
X0034020Y0057480D01*
X0034039Y0057600D01*
X0034049Y0057717D01*
X0034039Y0057834D01*
X0034020Y0057954D01*
X0033992Y0058057D01*
X0033957Y0058145D01*
X0033913Y0058217D01*
X0033862Y0058273D01*
X0033803Y0058313D01*
X0033736Y0058337D01*
X0033661Y0058345D01*
X0035236Y0058345D01*
X0035161Y0058337D01*
D02*
G37*
G36*
X0033285Y0054131D02*
X0033279Y0054160D01*
X0033263Y0054186D01*
X0033235Y0054208D01*
X0033196Y0054228D01*
X0033146Y0054245D01*
X0033084Y0054258D01*
X0033012Y0054269D01*
X0032928Y0054277D01*
X0032728Y0054283D01*
X0032728Y0055070D01*
X0032834Y0055071D01*
X0033012Y0055083D01*
X0033084Y0055094D01*
X0033146Y0055108D01*
X0033196Y0055124D01*
X0033235Y0055144D01*
X0033263Y0055167D01*
X0033279Y0055193D01*
X0033285Y0055221D01*
X0033285Y0054131D01*
D02*
G37*
G36*
X0027779Y0053375D02*
X0027713Y0053351D01*
X0027653Y0053311D01*
X0027602Y0053255D01*
X0027559Y0053183D01*
X0027524Y0053095D01*
X0027496Y0052991D01*
X0027476Y0052871D01*
X0027464Y0052735D01*
X0027461Y0052584D01*
X0026673Y0052584D01*
X0026669Y0052735D01*
X0026657Y0052871D01*
X0026638Y0052991D01*
X0026610Y0053095D01*
X0026575Y0053183D01*
X0026531Y0053255D01*
X0026480Y0053311D01*
X0026421Y0053351D01*
X0026354Y0053375D01*
X0026279Y0053383D01*
X0027854Y0053383D01*
X0027779Y0053375D01*
D02*
G37*
G36*
X0057471Y0051090D02*
X0057463Y0051163D01*
X0057433Y0051229D01*
X0057382Y0051287D01*
X0057311Y0051337D01*
X0057219Y0051379D01*
X0057107Y0051414D01*
X0056973Y0051441D01*
X0056819Y0051460D01*
X0056644Y0051472D01*
X0056449Y0051476D01*
X0056465Y0052263D01*
X0056660Y0052267D01*
X0056991Y0052298D01*
X0057125Y0052325D01*
X0057239Y0052360D01*
X0057332Y0052402D01*
X0057405Y0052453D01*
X0057458Y0052511D01*
X0057490Y0052576D01*
X0057502Y0052650D01*
X0057471Y0051090D01*
D02*
G37*
G36*
X0051181Y0051372D02*
X0051183Y0051245D01*
X0051199Y0051015D01*
X0051214Y0050913D01*
X0051232Y0050819D01*
X0051255Y0050734D01*
X0051282Y0050657D01*
X0051312Y0050588D01*
X0051347Y0050528D01*
X0051386Y0050476D01*
X0049738Y0050614D01*
X0049788Y0050662D01*
X0049833Y0050718D01*
X0049872Y0050783D01*
X0049906Y0050857D01*
X0049935Y0050940D01*
X0049958Y0051032D01*
X0049976Y0051132D01*
X0049990Y0051242D01*
X0049997Y0051360D01*
X0050000Y0051487D01*
X0051181Y0051372D01*
D02*
G37*
G36*
X0051185Y0049203D02*
X0051207Y0048918D01*
X0051386Y0048933D01*
X0051347Y0048881D01*
X0051312Y0048821D01*
X0051282Y0048752D01*
X0051255Y0048675D01*
X0051248Y0048650D01*
X0051269Y0048563D01*
X0051307Y0048443D01*
X0051353Y0048339D01*
X0051406Y0048252D01*
X0051465Y0048181D01*
X0051532Y0048126D01*
X0051183Y0048140D01*
X0051181Y0048036D01*
X0050000Y0047922D01*
X0049997Y0048049D01*
X0049985Y0048187D01*
X0049409Y0048210D01*
X0049522Y0048218D01*
X0049622Y0048251D01*
X0049711Y0048308D01*
X0049787Y0048390D01*
X0049852Y0048497D01*
X0049889Y0048588D01*
X0049872Y0048625D01*
X0049833Y0048691D01*
X0049788Y0048747D01*
X0049738Y0048795D01*
X0049951Y0048813D01*
X0049976Y0048966D01*
X0049994Y0049173D01*
X0050000Y0049403D01*
X0051181Y0049403D01*
X0051185Y0049203D01*
D02*
G37*
G36*
X0056977Y0049181D02*
X0057759Y0048522D01*
X0057979Y0048377D01*
X0058177Y0048269D01*
X0058354Y0048198D01*
X0058511Y0048165D01*
X0058647Y0048169D01*
X0058762Y0048210D01*
X0057964Y0047754D01*
X0058411Y0047335D01*
X0057527Y0046450D01*
X0057518Y0046468D01*
X0057495Y0046500D01*
X0057458Y0046544D01*
X0057171Y0046852D01*
X0056887Y0047139D01*
X0056683Y0047022D01*
X0056712Y0045040D01*
X0056695Y0045169D01*
X0056647Y0045284D01*
X0056569Y0045386D01*
X0056460Y0045474D01*
X0056321Y0045549D01*
X0056151Y0045610D01*
X0055951Y0045657D01*
X0055720Y0045691D01*
X0055459Y0045711D01*
X0055167Y0045718D01*
X0055167Y0047293D01*
X0055454Y0047300D01*
X0055711Y0047320D01*
X0055937Y0047354D01*
X0056133Y0047402D01*
X0056298Y0047464D01*
X0056433Y0047539D01*
X0056537Y0047627D01*
X0056610Y0047728D01*
X0056598Y0047750D01*
X0056456Y0047949D01*
X0056277Y0048169D01*
X0055804Y0048675D01*
X0056675Y0049475D01*
X0056977Y0049181D01*
D02*
G37*
G36*
X0028544Y0044908D02*
X0028591Y0044208D01*
X0028602Y0044183D01*
X0027697Y0044183D01*
X0027708Y0044208D01*
X0027718Y0044246D01*
X0027727Y0044299D01*
X0027741Y0044446D01*
X0027754Y0044771D01*
X0027756Y0045058D01*
X0028543Y0045058D01*
X0028544Y0044908D01*
D02*
G37*
G36*
X0032092Y0045143D02*
X0032132Y0044723D01*
X0032168Y0044552D01*
X0032214Y0044408D01*
X0032270Y0044291D01*
X0032336Y0044200D01*
X0032412Y0044135D01*
X0032499Y0044097D01*
X0032595Y0044085D01*
X0032101Y0044077D01*
X0032099Y0044057D01*
X0032091Y0043834D01*
X0032087Y0043307D01*
X0030512Y0043307D01*
X0030489Y0044051D01*
X0030006Y0044043D01*
X0030102Y0044058D01*
X0030188Y0044100D01*
X0030264Y0044168D01*
X0030329Y0044263D01*
X0030385Y0044385D01*
X0030431Y0044533D01*
X0030466Y0044708D01*
X0030492Y0044910D01*
X0030507Y0045138D01*
X0030512Y0045393D01*
X0032087Y0045393D01*
X0032092Y0045143D01*
D02*
G37*
%LPC*%
G36*
X0064646Y0059074D02*
X0061996Y0059074D01*
X0061996Y0057350D01*
X0065235Y0057350D01*
X0065235Y0057871D01*
X0065343Y0057797D01*
X0065462Y0057730D01*
X0065592Y0057672D01*
X0065733Y0057621D01*
X0065886Y0057578D01*
X0066049Y0057542D01*
X0066225Y0057515D01*
X0066608Y0057484D01*
X0066744Y0057481D01*
X0066700Y0057701D01*
X0066218Y0058422D01*
X0065497Y0058904D01*
X0064646Y0059074D01*
D02*
G37*
G36*
X0060996Y0059074D02*
X0058346Y0059074D01*
X0057495Y0058904D01*
X0056774Y0058422D01*
X0056292Y0057701D01*
X0056222Y0057350D01*
X0060996Y0057350D01*
X0060996Y0059074D01*
D02*
G37*
G36*
X0065235Y0056350D02*
X0061996Y0056350D01*
X0061996Y0054626D01*
X0064646Y0054626D01*
X0065497Y0054795D01*
X0066218Y0055278D01*
X0066700Y0055999D01*
X0066759Y0056296D01*
X0066665Y0056294D01*
X0066291Y0056256D01*
X0066116Y0056224D01*
X0065949Y0056181D01*
X0065790Y0056130D01*
X0065639Y0056069D01*
X0065496Y0055998D01*
X0065362Y0055918D01*
X0065235Y0055829D01*
X0065235Y0056350D01*
D02*
G37*
G36*
X0060996Y0056350D02*
X0056222Y0056350D01*
X0056292Y0055999D01*
X0056774Y0055278D01*
X0057495Y0054795D01*
X0058346Y0054626D01*
X0060996Y0054626D01*
X0060996Y0056350D01*
D02*
G37*
G36*
X0045748Y0054074D02*
X0043098Y0054074D01*
X0043098Y0052350D01*
X0047872Y0052350D01*
X0047803Y0052701D01*
X0047320Y0053422D01*
X0046599Y0053905D01*
X0045748Y0054074D01*
D02*
G37*
G36*
X0065866Y0049254D02*
X0065027Y0049254D01*
X0065027Y0047055D01*
X0066183Y0047055D01*
X0066183Y0047441D01*
X0066191Y0047366D01*
X0066215Y0047299D01*
X0066255Y0047240D01*
X0066311Y0047189D01*
X0066383Y0047145D01*
X0066471Y0047110D01*
X0066575Y0047082D01*
X0066695Y0047063D01*
X0066712Y0047061D01*
X0066729Y0047063D01*
X0066849Y0047082D01*
X0066953Y0047110D01*
X0067041Y0047145D01*
X0067113Y0047189D01*
X0067169Y0047240D01*
X0067209Y0047299D01*
X0067227Y0047349D01*
X0067227Y0047893D01*
X0067123Y0048414D01*
X0066828Y0048856D01*
X0066387Y0049151D01*
X0065866Y0049254D01*
D02*
G37*
G36*
X0064027Y0049254D02*
X0063189Y0049254D01*
X0062668Y0049151D01*
X0062227Y0048856D01*
X0061932Y0048414D01*
X0061828Y0047893D01*
X0061828Y0047055D01*
X0064027Y0047055D01*
X0064027Y0049254D01*
D02*
G37*
G36*
X0047872Y0051350D02*
X0042598Y0051350D01*
X0037324Y0051350D01*
X0037394Y0050999D01*
X0037876Y0050278D01*
X0038598Y0049795D01*
X0039449Y0049626D01*
X0041544Y0049626D01*
X0041848Y0049162D01*
X0041844Y0049126D01*
X0041439Y0048856D01*
X0041144Y0048414D01*
X0041041Y0047893D01*
X0041041Y0047667D01*
X0041213Y0047681D01*
X0041411Y0047716D01*
X0041588Y0047760D01*
X0041745Y0047813D01*
X0041881Y0047877D01*
X0041998Y0047950D01*
X0042093Y0048033D01*
X0042169Y0048126D01*
X0042137Y0047055D01*
X0043740Y0047055D01*
X0043740Y0046555D01*
X0043740Y0047055D01*
X0046439Y0047055D01*
X0046439Y0047893D01*
X0046336Y0048414D01*
X0046041Y0048856D01*
X0045636Y0049126D01*
X0045632Y0049162D01*
X0045748Y0049626D01*
X0046599Y0049795D01*
X0047320Y0050278D01*
X0047803Y0050999D01*
X0047872Y0051350D01*
D02*
G37*
G36*
X0032716Y0048880D02*
X0031799Y0048880D01*
X0031799Y0046484D01*
X0033039Y0046484D01*
X0033053Y0047103D01*
X0033065Y0046984D01*
X0033106Y0046877D01*
X0033176Y0046783D01*
X0033275Y0046702D01*
X0033403Y0046633D01*
X0033560Y0046576D01*
X0033746Y0046532D01*
X0033962Y0046501D01*
X0034097Y0046491D01*
X0034097Y0047500D01*
X0033992Y0048028D01*
X0033693Y0048476D01*
X0033245Y0048775D01*
X0032716Y0048880D01*
D02*
G37*
G36*
X0067177Y0046055D02*
X0066247Y0046055D01*
X0066215Y0046007D01*
X0066191Y0045941D01*
X0066183Y0045866D01*
X0066183Y0046055D01*
X0065027Y0046055D01*
X0065027Y0045672D01*
X0065256Y0045672D01*
X0065264Y0045371D01*
X0065287Y0045101D01*
X0065310Y0044963D01*
X0066037Y0044957D01*
X0065888Y0044941D01*
X0065756Y0044893D01*
X0065638Y0044811D01*
X0065537Y0044697D01*
X0065451Y0044549D01*
X0065439Y0044517D01*
X0065453Y0044482D01*
X0065539Y0044339D01*
X0065642Y0044228D01*
X0065760Y0044149D01*
X0065894Y0044101D01*
X0066043Y0044085D01*
X0065315Y0044085D01*
X0065287Y0043906D01*
X0065283Y0043855D01*
X0065866Y0043855D01*
X0066387Y0043959D01*
X0066828Y0044254D01*
X0067123Y0044695D01*
X0067227Y0045216D01*
X0067227Y0045957D01*
X0067209Y0046007D01*
X0067177Y0046055D01*
D02*
G37*
G36*
X0039279Y0046218D02*
X0039279Y0045571D01*
X0039503Y0045750D01*
X0039809Y0046029D01*
X0039630Y0046149D01*
X0039279Y0046218D01*
D02*
G37*
G36*
X0064027Y0046055D02*
X0061828Y0046055D01*
X0061828Y0045216D01*
X0061932Y0044695D01*
X0062227Y0044254D01*
X0062668Y0043959D01*
X0063189Y0043855D01*
X0063635Y0043855D01*
X0063616Y0043961D01*
X0063582Y0044085D01*
X0062894Y0044085D01*
X0063043Y0044101D01*
X0063177Y0044149D01*
X0063295Y0044228D01*
X0063398Y0044339D01*
X0063449Y0044425D01*
X0063420Y0044484D01*
X0063326Y0044630D01*
X0063217Y0044762D01*
X0063094Y0044880D01*
X0062956Y0044984D01*
X0063629Y0044978D01*
X0063650Y0045101D01*
X0063673Y0045371D01*
X0063681Y0045672D01*
X0064027Y0045672D01*
X0064027Y0046055D01*
D02*
G37*
G36*
X0038280Y0046218D02*
X0037929Y0046149D01*
X0037207Y0045667D01*
X0036729Y0044951D01*
X0038047Y0045021D01*
X0038039Y0044594D01*
X0038151Y0044594D01*
X0038280Y0044678D01*
X0038280Y0046218D01*
D02*
G37*
G36*
X0046439Y0046055D02*
X0044240Y0046055D01*
X0044240Y0043855D01*
X0045079Y0043855D01*
X0045599Y0043959D01*
X0046041Y0044254D01*
X0046336Y0044695D01*
X0046439Y0045216D01*
X0046439Y0046055D01*
D02*
G37*
G36*
X0043240Y0046055D02*
X0042179Y0046055D01*
X0042276Y0044912D01*
X0042267Y0044906D01*
X0042222Y0044901D01*
X0042141Y0044897D01*
X0040914Y0044885D01*
X0040799Y0044743D01*
X0040702Y0044588D01*
X0040647Y0044455D01*
X0040635Y0044342D01*
X0040667Y0044250D01*
X0040741Y0044178D01*
X0040859Y0044126D01*
X0041019Y0044095D01*
X0041117Y0044091D01*
X0041253Y0044160D01*
X0041488Y0044221D01*
X0041881Y0043959D01*
X0042401Y0043855D01*
X0043240Y0043855D01*
X0043240Y0046055D01*
D02*
G37*
G36*
X0056673Y0047620D02*
X0056682Y0047030D01*
X0056737Y0047075D01*
X0056785Y0047167D01*
X0056795Y0047281D01*
X0056767Y0047416D01*
X0056702Y0047572D01*
X0056673Y0047620D01*
D02*
G37*
%LPD*%
D19*
X0064626Y0046653D02*
X0067618Y0046653D01*
X0055039Y0066850D02*
X0061496Y0066850D01*
X0054823Y0066633D02*
X0055039Y0066850D01*
X0026181Y0043504D02*
X0026181Y0044635D01*
X0026476Y0044931D01*
X0026476Y0050689D01*
X0028150Y0043504D02*
X0028150Y0050098D01*
X0033957Y0055236D02*
X0034941Y0055236D01*
X0033957Y0055070D02*
X0033957Y0055236D01*
X0033563Y0054676D02*
X0033957Y0055070D01*
X0032728Y0054676D02*
X0033563Y0054676D01*
X0028150Y0050098D02*
X0032728Y0054676D01*
X0026476Y0050689D02*
X0027067Y0051279D01*
X0031142Y0063130D02*
X0038265Y0063130D01*
X0038757Y0062637D01*
X0043209Y0062637D01*
X0029567Y0061555D02*
X0031142Y0063130D01*
X0061397Y0051870D02*
X0061417Y0051850D01*
X0055118Y0052657D02*
X0055464Y0052657D01*
X0056251Y0051870D01*
X0061397Y0051870D01*
X0033957Y0055334D02*
X0034449Y0055826D01*
X0038387Y0057637D02*
X0044390Y0057637D01*
X0027067Y0051279D02*
X0027067Y0054744D01*
X0028149Y0055826D01*
X0064527Y0046555D02*
X0064626Y0046653D01*
X0028149Y0055826D02*
X0028149Y0060137D01*
X0028149Y0060571D02*
X0029134Y0061555D01*
X0028149Y0060137D02*
X0028149Y0060571D01*
X0029134Y0061555D02*
X0029567Y0061555D01*
X0034449Y0055826D02*
X0034449Y0060137D01*
X0036614Y0060137D01*
X0037501Y0059251D01*
X0037501Y0058524D02*
X0037501Y0059251D01*
X0037501Y0058524D02*
X0038387Y0057637D01*
D24*
X0035039Y0055236D02*
D03*
X0031299Y0045984D02*
D03*
D24*
X0027559Y0055236D02*
D03*
D25*
X0042598Y0066850D02*
D03*
X0042598Y0061850D02*
D03*
X0042598Y0056850D02*
D03*
X0042598Y0051850D02*
D03*
X0061496Y0066850D02*
D03*
X0061496Y0061850D02*
D03*
X0061496Y0056850D02*
D03*
X0061496Y0051850D02*
D03*
D26*
X0058307Y0046555D02*
D03*
X0064527Y0046555D02*
D03*
X0049961Y0046555D02*
D03*
X0043740Y0046555D02*
D03*
D27*
X0028149Y0060137D02*
D03*
X0034449Y0060137D02*
D03*
D16*
X0038779Y0044094D02*
D03*
X0054823Y0066633D02*
D03*
X0055118Y0052657D02*
D03*
X0053937Y0047637D02*
D03*
X0050492Y0049704D02*
D03*
D28*
X0066929Y0043307D02*
D03*
D29*
X0026181Y0043504D02*
D03*
X0028150Y0043504D02*
D03*
D11*
X0045965Y0069291D02*
D03*
D14*
X0067618Y0056151D02*
D03*
D12*
X0048720Y0043307D02*
D03*
D10*
X0024409Y0058513D02*
D03*
D30*
X0039562Y0051928D02*
X0044605Y0051928D01*
X0031004Y0045689D02*
X0034480Y0045689D01*
X0031004Y0045689D02*
X0031299Y0045393D01*
X0031299Y0043307D02*
X0031299Y0045393D01*
X0038287Y0050653D02*
X0039562Y0051928D01*
X0044605Y0051928D02*
X0044891Y0052214D01*
X0064468Y0046496D02*
X0064527Y0046555D01*
X0064468Y0043307D02*
X0064468Y0046496D01*
X0058258Y0046505D02*
X0058307Y0046555D01*
X0055167Y0046505D02*
X0058258Y0046505D01*
X0054035Y0047637D02*
X0055167Y0046505D01*
X0038779Y0044094D02*
X0038993Y0044094D01*
X0040567Y0045669D01*
X0042854Y0045669D01*
X0038729Y0044145D02*
X0038779Y0044094D01*
X0036024Y0044145D02*
X0038729Y0044145D01*
X0034480Y0045689D02*
X0036024Y0044145D01*
X0042854Y0045669D02*
X0043740Y0046555D01*
X0043445Y0046850D02*
X0043740Y0046555D01*
X0039764Y0046850D02*
X0043445Y0046850D01*
X0038287Y0048326D02*
X0039764Y0046850D01*
X0038287Y0048326D02*
X0038287Y0050653D01*
D31*
X0050591Y0047185D02*
X0050591Y0049704D01*
X0050591Y0065354D01*
X0042520Y0066850D02*
X0042746Y0067076D01*
X0048869Y0067076D01*
X0050591Y0065354D01*
X0061358Y0061909D02*
X0061417Y0061850D01*
X0053078Y0061909D02*
X0061358Y0061909D01*
X0052559Y0061390D02*
X0053078Y0061909D01*
X0052559Y0051597D02*
X0052559Y0061390D01*
X0054058Y0050098D02*
X0055216Y0050098D01*
X0057224Y0047637D02*
X0058307Y0046555D01*
X0057224Y0047637D02*
X0057224Y0048090D01*
X0055216Y0050098D02*
X0057224Y0048090D01*
X0052559Y0051597D02*
X0054058Y0050098D01*
X0062106Y0057047D02*
X0062165Y0056988D01*
X0062165Y0056889D02*
X0067323Y0056889D01*
X0061870Y0056988D02*
X0062165Y0056988D01*
X0049961Y0046555D02*
X0050591Y0047185D01*
M02*
